<?xml version="1.0" standalone="no"?>
<svg xmlns:xlink="http://www.w3.org/1999/xlink" xmlns="http://www.w3.org/2000/svg" width="176mm" height="112mm" viewBox="0 0 176 112"><g id="svgGroup" stroke="#000" stroke-width="0.25mm" stroke-linecap="round" fill="none" fill-rule="evenodd" font-size="9pt"><path d="M 1 1 m -1 0 a 1 1 0 0 1 2 0 a 1 1 0 0 1 -2 0 z M 8.1785165 14.1785165 m -4.1785165 0 a 4.1785165 4.1785165 0 0 1 8.357033 0 a 4.1785165 4.1785165 0 0 1 -8.357033 0 z M 78.8214835 14.1785165 m -4.1785165 0 a 4.1785165 4.1785165 0 0 1 8.357033 0 a 4.1785165 4.1785165 0 0 1 -8.357033 0 z M 94 64 L 94 47.8392582 L 91 47.8392582 L 91 31.8392582 L 94 31.8392582 L 94 15.6785165 L 128 15.6785165 L 128 31.8392582 L 131 31.8392582 L 131 47.8392582 L 128 47.8392582 L 128 64 L 94 64 Z M 105.5 56.8214835 L 116.5 56.8214835 L 116.5 54.2214835 L 105.5 54.2214835 L 105.5 56.8214835 Z M 139 64 L 139 47.8392582 L 136 47.8392582 L 136 31.8392582 L 139 31.8392582 L 139 15.6785165 L 150.5 15.6785165 L 150.5 12.6785165 L 161.5 12.6785165 L 161.5 15.6785165 L 173 15.6785165 L 173 31.8392582 L 176 31.8392582 L 176 47.8392582 L 173 47.8392582 L 173 64 L 139 64 Z M 150.5 56.8214835 L 161.5 56.8214835 L 161.5 54.2214835 L 150.5 54.2214835 L 150.5 56.8214835 Z M 15.357033 109 L 15.357033 97.5 L 9.6785165 97.5 L 9.6785165 86.5 L 15.357033 86.5 L 15.357033 75 L 19.5892582 75 L 19.5892582 72 L 23.5892582 72 L 23.5892582 75 L 27.8214835 75 L 27.8214835 86.5 L 30.8214835 86.5 L 30.8214835 97.5 L 27.8214835 97.5 L 27.8214835 109 L 23.5892582 109 L 23.5892582 112 L 19.5892582 112 L 19.5892582 109 L 15.357033 109 Z M 49 109 L 49 75 L 49.2785165 75 L 49.2785165 72 L 57.0785165 72 L 57.0785165 75 L 83 75 L 83 109 L 57.0785165 109 L 57.0785165 112 L 49.2785165 112 L 49.2785165 109 L 49 109 Z M 72.8214835 97.5 L 75.6214835 97.5 L 75.6214835 86.5 L 72.8214835 86.5 L 72.8214835 97.5 Z M 4 67 L 4 58.3214835 L 1 58.3214835 L 1 7 L 41 7 L 41 58.3214835 L 38 58.3214835 L 38 67 L 4 67 Z M 12.357033 47.8392582 L 14.957033 47.8392582 L 14.957033 31.8392582 L 12.357033 31.8392582 L 12.357033 47.8392582 Z M 27.8214835 47.8392582 L 30.4214835 47.8392582 L 30.4214835 31.8392582 L 27.8214835 31.8392582 L 27.8214835 47.8392582 Z M 19.5892582 56.8214835 L 23.5892582 56.8214835 L 23.5892582 54.2214835 L 19.5892582 54.2214835 L 19.5892582 56.8214835 Z M 83 67 L 83 58.3214835 L 86 58.3214835 L 86 7 L 46 7 L 46 58.3214835 L 49 58.3214835 L 49 67 L 83 67 Z M 74.642967 47.8392582 L 72.042967 47.8392582 L 72.042967 31.8392582 L 74.642967 31.8392582 L 74.642967 47.8392582 Z M 59.1785165 47.8392582 L 56.5785165 47.8392582 L 56.5785165 31.8392582 L 59.1785165 31.8392582 L 59.1785165 47.8392582 Z M 67.4107418 56.8214835 L 63.4107418 56.8214835 L 63.4107418 54.2214835 L 67.4107418 54.2214835 L 67.4107418 56.8214835 Z" vector-effect="non-scaling-stroke"/></g></svg>